<svg xmlns="http://www.w3.org/2000/svg" width="512" height="512" viewBox="0 0 512 512" version="1.1">
	<path d="M 57.500 43.113 C 40.510 45.574, 25.777 59.604, 22.125 76.799 C 20.634 83.824, 20.519 426.148, 22.005 434.114 C 24.493 447.445, 35.570 461.266, 47.683 466.153 L 53.500 468.500 253.961 468.760 C 435.591 468.995, 454.941 468.868, 459.948 467.413 C 467.621 465.182, 472.882 461.875, 478.930 455.480 C 484.896 449.172, 488.673 441.635, 490.035 433.321 C 491.472 424.547, 491.319 83.599, 489.875 76.799 C 486.179 59.395, 471.758 45.822, 454 43.035 C 445.906 41.765, 66.292 41.839, 57.500 43.113 M 85.218 121.690 L 85.500 133.379 117.293 151.922 C 142.668 166.722, 148.785 170.684, 147.597 171.553 C 146.778 172.152, 132.359 180.645, 115.554 190.428 L 85 208.214 85 219.607 C 85 228.084, 85.320 230.986, 86.250 230.945 C 88.228 230.858, 190.326 171.604, 190.254 170.585 C 190.191 169.683, 87.237 110.023, 85.718 110.008 C 85.288 110.003, 85.063 115.260, 85.218 121.690 M 192 224 L 192 235.018 245.250 234.759 L 298.500 234.500 298.500 224 L 298.500 213.500 245.250 213.241 L 192 212.982 192 224" stroke="none" fill="black" fill-rule="evenodd"/>
</svg>